<mxfile host="app.diagrams.net" modified="2021-09-02T15:03:43.817Z" agent="5.0 (Windows NT 10.0; Win64; x64) AppleWebKit/537.36 (KHTML, like Gecko) Chrome/92.0.4515.159 Safari/537.36" etag="jMf0RSej9zeZ441lv1Vt" version="15.0.6" type="github">
  <diagram name="Page-1" id="74e2e168-ea6b-b213-b513-2b3c1d86103e">
    <mxGraphModel dx="4831" dy="5489" grid="1" gridSize="10" guides="1" tooltips="1" connect="1" arrows="1" fold="1" page="0" pageScale="1" pageWidth="1100" pageHeight="850" background="none" math="0" shadow="0">
      <root>
        <mxCell id="0" />
        <mxCell id="1" parent="0" />
        <mxCell id="107ba76e4e335f99-2" style="edgeStyle=orthogonalEdgeStyle;rounded=1;html=1;labelBackgroundColor=none;startArrow=none;startFill=0;startSize=5;endArrow=classicThin;endFill=1;endSize=5;jettySize=auto;orthogonalLoop=1;strokeWidth=1;fontFamily=Verdana;fontSize=8" parent="1" target="77e6c97f196da883-14" edge="1">
          <mxGeometry relative="1" as="geometry">
            <Array as="points">
              <mxPoint x="730" y="650" />
              <mxPoint x="730" y="590" />
              <mxPoint x="470" y="590" />
            </Array>
            <mxPoint x="130" y="1260" as="sourcePoint" />
          </mxGeometry>
        </mxCell>
        <mxCell id="107ba76e4e335f99-4" style="edgeStyle=orthogonalEdgeStyle;rounded=1;html=1;labelBackgroundColor=none;startArrow=none;startFill=0;startSize=5;endArrow=classicThin;endFill=1;endSize=5;jettySize=auto;orthogonalLoop=1;strokeWidth=1;fontFamily=Verdana;fontSize=8" parent="1" source="77e6c97f196da883-22" edge="1">
          <mxGeometry relative="1" as="geometry">
            <Array as="points">
              <mxPoint x="730" y="650" />
              <mxPoint x="730" y="590" />
              <mxPoint x="150" y="590" />
            </Array>
            <mxPoint x="150" y="620" as="targetPoint" />
          </mxGeometry>
        </mxCell>
        <mxCell id="107ba76e4e335f99-5" style="edgeStyle=orthogonalEdgeStyle;rounded=1;html=1;labelBackgroundColor=none;startArrow=none;startFill=0;startSize=5;endArrow=classicThin;endFill=1;endSize=5;jettySize=auto;orthogonalLoop=1;strokeWidth=1;fontFamily=Verdana;fontSize=8" parent="1" target="77e6c97f196da883-19" edge="1">
          <mxGeometry relative="1" as="geometry">
            <Array as="points">
              <mxPoint x="150" y="690" />
              <mxPoint x="560" y="690" />
              <mxPoint x="560" y="650" />
            </Array>
            <mxPoint x="150" y="680" as="sourcePoint" />
          </mxGeometry>
        </mxCell>
        <mxCell id="FvRrcLxxwVBO_BsxESHh-75" style="edgeStyle=orthogonalEdgeStyle;rounded=0;orthogonalLoop=1;jettySize=auto;html=1;" edge="1" parent="1" source="77e6c97f196da883-8">
          <mxGeometry relative="1" as="geometry">
            <mxPoint x="-2360" y="-3820" as="targetPoint" />
          </mxGeometry>
        </mxCell>
        <mxCell id="FvRrcLxxwVBO_BsxESHh-87" style="edgeStyle=orthogonalEdgeStyle;rounded=0;orthogonalLoop=1;jettySize=auto;html=1;entryX=0.5;entryY=1;entryDx=0;entryDy=0;" edge="1" parent="1" source="77e6c97f196da883-8" target="FvRrcLxxwVBO_BsxESHh-42">
          <mxGeometry relative="1" as="geometry" />
        </mxCell>
        <mxCell id="FvRrcLxxwVBO_BsxESHh-89" style="edgeStyle=orthogonalEdgeStyle;rounded=0;orthogonalLoop=1;jettySize=auto;html=1;exitX=1;exitY=0.75;exitDx=0;exitDy=0;entryX=0.5;entryY=0;entryDx=0;entryDy=0;" edge="1" parent="1" source="77e6c97f196da883-8" target="FvRrcLxxwVBO_BsxESHh-68">
          <mxGeometry relative="1" as="geometry" />
        </mxCell>
        <mxCell id="FvRrcLxxwVBO_BsxESHh-90" style="edgeStyle=orthogonalEdgeStyle;rounded=0;orthogonalLoop=1;jettySize=auto;html=1;exitX=1;exitY=1;exitDx=0;exitDy=0;" edge="1" parent="1" source="77e6c97f196da883-8">
          <mxGeometry relative="1" as="geometry">
            <mxPoint x="-1850" y="-3470" as="targetPoint" />
            <Array as="points">
              <mxPoint x="-2220" y="-3920" />
              <mxPoint x="-1950" y="-3920" />
              <mxPoint x="-1950" y="-3470" />
              <mxPoint x="-1940" y="-3470" />
            </Array>
          </mxGeometry>
        </mxCell>
        <mxCell id="77e6c97f196da883-8" value="&lt;h1&gt;LOGIN&lt;/h1&gt;" style="rounded=1;whiteSpace=wrap;html=1;shadow=0;labelBackgroundColor=none;strokeWidth=1;fontFamily=Verdana;fontSize=8;align=center;" parent="1" vertex="1">
          <mxGeometry x="-2320" y="-4000" width="100" height="60" as="geometry" />
        </mxCell>
        <mxCell id="FvRrcLxxwVBO_BsxESHh-38" style="edgeStyle=orthogonalEdgeStyle;rounded=0;orthogonalLoop=1;jettySize=auto;html=1;" edge="1" parent="1" source="FvRrcLxxwVBO_BsxESHh-37">
          <mxGeometry relative="1" as="geometry">
            <mxPoint x="-2270" y="-4000" as="targetPoint" />
          </mxGeometry>
        </mxCell>
        <mxCell id="FvRrcLxxwVBO_BsxESHh-37" value="&#xa;&#xa;&lt;h1 style=&quot;color: rgb(0, 0, 0); font-family: verdana; font-style: normal; letter-spacing: normal; text-align: center; text-indent: 0px; text-transform: none; word-spacing: 0px; background-color: rgb(255, 255, 255);&quot;&gt;INICIO&lt;/h1&gt;&#xa;&#xa;" style="ellipse;whiteSpace=wrap;html=1;" vertex="1" parent="1">
          <mxGeometry x="-2330" y="-4190" width="120" height="80" as="geometry" />
        </mxCell>
        <mxCell id="FvRrcLxxwVBO_BsxESHh-40" value="" style="ellipse;whiteSpace=wrap;html=1;" vertex="1" parent="1">
          <mxGeometry x="-2280" y="-3940" width="20" height="20" as="geometry" />
        </mxCell>
        <mxCell id="FvRrcLxxwVBO_BsxESHh-76" style="edgeStyle=orthogonalEdgeStyle;rounded=0;orthogonalLoop=1;jettySize=auto;html=1;" edge="1" parent="1" source="FvRrcLxxwVBO_BsxESHh-41">
          <mxGeometry relative="1" as="geometry">
            <mxPoint x="-2190" y="-3620" as="targetPoint" />
            <Array as="points">
              <mxPoint x="-2090" y="-3890" />
              <mxPoint x="-2090" y="-3620" />
            </Array>
          </mxGeometry>
        </mxCell>
        <mxCell id="FvRrcLxxwVBO_BsxESHh-41" value="&lt;h1&gt;VER MENU&lt;/h1&gt;&lt;div&gt;(ORDEN DESH)&lt;/div&gt;" style="rounded=1;whiteSpace=wrap;html=1;shadow=0;labelBackgroundColor=none;strokeWidth=1;fontFamily=Verdana;fontSize=8;align=center;" vertex="1" parent="1">
          <mxGeometry x="-2320" y="-3920" width="100" height="60" as="geometry" />
        </mxCell>
        <mxCell id="FvRrcLxxwVBO_BsxESHh-93" style="edgeStyle=orthogonalEdgeStyle;rounded=0;orthogonalLoop=1;jettySize=auto;html=1;" edge="1" parent="1" source="FvRrcLxxwVBO_BsxESHh-42" target="FvRrcLxxwVBO_BsxESHh-62">
          <mxGeometry relative="1" as="geometry" />
        </mxCell>
        <mxCell id="FvRrcLxxwVBO_BsxESHh-42" value="ADMIN" style="ellipse;whiteSpace=wrap;html=1;" vertex="1" parent="1">
          <mxGeometry x="-2030" y="-4080" width="140" height="60" as="geometry" />
        </mxCell>
        <mxCell id="FvRrcLxxwVBO_BsxESHh-80" style="edgeStyle=orthogonalEdgeStyle;rounded=0;orthogonalLoop=1;jettySize=auto;html=1;" edge="1" parent="1" source="FvRrcLxxwVBO_BsxESHh-44">
          <mxGeometry relative="1" as="geometry">
            <mxPoint x="-2320" y="-3670" as="targetPoint" />
          </mxGeometry>
        </mxCell>
        <mxCell id="FvRrcLxxwVBO_BsxESHh-44" value="ELEGIR MESA" style="rounded=0;whiteSpace=wrap;html=1;" vertex="1" parent="1">
          <mxGeometry x="-2400" y="-3810" width="120" height="60" as="geometry" />
        </mxCell>
        <mxCell id="FvRrcLxxwVBO_BsxESHh-81" style="edgeStyle=orthogonalEdgeStyle;rounded=0;orthogonalLoop=1;jettySize=auto;html=1;" edge="1" parent="1" source="FvRrcLxxwVBO_BsxESHh-45">
          <mxGeometry relative="1" as="geometry">
            <mxPoint x="-2220" y="-3670" as="targetPoint" />
          </mxGeometry>
        </mxCell>
        <mxCell id="FvRrcLxxwVBO_BsxESHh-45" value="TA" style="rounded=0;whiteSpace=wrap;html=1;" vertex="1" parent="1">
          <mxGeometry x="-2260" y="-3810" width="120" height="60" as="geometry" />
        </mxCell>
        <mxCell id="FvRrcLxxwVBO_BsxESHh-77" style="edgeStyle=orthogonalEdgeStyle;rounded=0;orthogonalLoop=1;jettySize=auto;html=1;entryX=0.5;entryY=0;entryDx=0;entryDy=0;" edge="1" parent="1" source="FvRrcLxxwVBO_BsxESHh-46" target="FvRrcLxxwVBO_BsxESHh-47">
          <mxGeometry relative="1" as="geometry" />
        </mxCell>
        <mxCell id="FvRrcLxxwVBO_BsxESHh-46" value="CARDS&lt;br&gt;CONTINENTES" style="rounded=0;whiteSpace=wrap;html=1;" vertex="1" parent="1">
          <mxGeometry x="-2330" y="-3660" width="120" height="60" as="geometry" />
        </mxCell>
        <mxCell id="FvRrcLxxwVBO_BsxESHh-82" style="edgeStyle=orthogonalEdgeStyle;rounded=0;orthogonalLoop=1;jettySize=auto;html=1;" edge="1" parent="1" source="FvRrcLxxwVBO_BsxESHh-47">
          <mxGeometry relative="1" as="geometry">
            <mxPoint x="-2300" y="-3420" as="targetPoint" />
          </mxGeometry>
        </mxCell>
        <mxCell id="FvRrcLxxwVBO_BsxESHh-47" value="CONTINENTE" style="rounded=0;whiteSpace=wrap;html=1;" vertex="1" parent="1">
          <mxGeometry x="-2360" y="-3510" width="120" height="40" as="geometry" />
        </mxCell>
        <mxCell id="FvRrcLxxwVBO_BsxESHh-53" style="edgeStyle=orthogonalEdgeStyle;rounded=0;orthogonalLoop=1;jettySize=auto;html=1;exitX=0.5;exitY=1;exitDx=0;exitDy=0;" edge="1" parent="1" source="FvRrcLxxwVBO_BsxESHh-48">
          <mxGeometry relative="1" as="geometry">
            <mxPoint x="-2300" y="-3340" as="targetPoint" />
          </mxGeometry>
        </mxCell>
        <mxCell id="FvRrcLxxwVBO_BsxESHh-48" value="CARDS COMIDA" style="rounded=0;whiteSpace=wrap;html=1;" vertex="1" parent="1">
          <mxGeometry x="-2360" y="-3410" width="120" height="40" as="geometry" />
        </mxCell>
        <mxCell id="FvRrcLxxwVBO_BsxESHh-83" style="edgeStyle=orthogonalEdgeStyle;rounded=0;orthogonalLoop=1;jettySize=auto;html=1;" edge="1" parent="1" source="FvRrcLxxwVBO_BsxESHh-49">
          <mxGeometry relative="1" as="geometry">
            <mxPoint x="-2280" y="-3200" as="targetPoint" />
          </mxGeometry>
        </mxCell>
        <mxCell id="FvRrcLxxwVBO_BsxESHh-84" style="edgeStyle=orthogonalEdgeStyle;rounded=0;orthogonalLoop=1;jettySize=auto;html=1;exitX=0.75;exitY=1;exitDx=0;exitDy=0;entryX=0;entryY=0;entryDx=0;entryDy=0;" edge="1" parent="1" source="FvRrcLxxwVBO_BsxESHh-49" target="FvRrcLxxwVBO_BsxESHh-56">
          <mxGeometry relative="1" as="geometry">
            <Array as="points">
              <mxPoint x="-2260" y="-3250" />
              <mxPoint x="-2260" y="-3230" />
            </Array>
          </mxGeometry>
        </mxCell>
        <mxCell id="FvRrcLxxwVBO_BsxESHh-85" style="edgeStyle=orthogonalEdgeStyle;rounded=0;orthogonalLoop=1;jettySize=auto;html=1;exitX=0.25;exitY=1;exitDx=0;exitDy=0;entryX=0.75;entryY=0;entryDx=0;entryDy=0;" edge="1" parent="1" source="FvRrcLxxwVBO_BsxESHh-49" target="FvRrcLxxwVBO_BsxESHh-55">
          <mxGeometry relative="1" as="geometry" />
        </mxCell>
        <mxCell id="FvRrcLxxwVBO_BsxESHh-49" value="CARRITO" style="rounded=0;whiteSpace=wrap;html=1;" vertex="1" parent="1">
          <mxGeometry x="-2340" y="-3290" width="120" height="40" as="geometry" />
        </mxCell>
        <mxCell id="FvRrcLxxwVBO_BsxESHh-54" value="" style="edgeStyle=orthogonalEdgeStyle;rounded=0;orthogonalLoop=1;jettySize=auto;html=1;" edge="1" parent="1" source="FvRrcLxxwVBO_BsxESHh-50" target="FvRrcLxxwVBO_BsxESHh-49">
          <mxGeometry relative="1" as="geometry" />
        </mxCell>
        <mxCell id="FvRrcLxxwVBO_BsxESHh-79" style="edgeStyle=orthogonalEdgeStyle;rounded=0;orthogonalLoop=1;jettySize=auto;html=1;" edge="1" parent="1" source="FvRrcLxxwVBO_BsxESHh-50">
          <mxGeometry relative="1" as="geometry">
            <mxPoint x="-2230" y="-3370" as="targetPoint" />
            <Array as="points">
              <mxPoint x="-2200" y="-3330" />
              <mxPoint x="-2200" y="-3370" />
            </Array>
          </mxGeometry>
        </mxCell>
        <mxCell id="FvRrcLxxwVBO_BsxESHh-50" value="AGREGAR" style="text;html=1;strokeColor=none;fillColor=none;align=center;verticalAlign=middle;whiteSpace=wrap;rounded=0;" vertex="1" parent="1">
          <mxGeometry x="-2320" y="-3340" width="80" height="20" as="geometry" />
        </mxCell>
        <mxCell id="FvRrcLxxwVBO_BsxESHh-55" value="PEDIR" style="text;html=1;strokeColor=none;fillColor=none;align=center;verticalAlign=middle;whiteSpace=wrap;rounded=0;" vertex="1" parent="1">
          <mxGeometry x="-2410" y="-3230" width="80" height="20" as="geometry" />
        </mxCell>
        <mxCell id="FvRrcLxxwVBO_BsxESHh-56" value="FINALIZAR" style="text;html=1;strokeColor=none;fillColor=none;align=center;verticalAlign=middle;whiteSpace=wrap;rounded=0;" vertex="1" parent="1">
          <mxGeometry x="-2240" y="-3230" width="80" height="20" as="geometry" />
        </mxCell>
        <mxCell id="FvRrcLxxwVBO_BsxESHh-58" value="" style="curved=1;endArrow=classic;html=1;" edge="1" parent="1">
          <mxGeometry width="50" height="50" relative="1" as="geometry">
            <mxPoint x="-2220" y="-3260" as="sourcePoint" />
            <mxPoint x="-2170" y="-3310" as="targetPoint" />
            <Array as="points">
              <mxPoint x="-2170" y="-3260" />
              <mxPoint x="-2220" y="-3310" />
            </Array>
          </mxGeometry>
        </mxCell>
        <mxCell id="FvRrcLxxwVBO_BsxESHh-59" value="LOGUIN" style="text;html=1;strokeColor=none;fillColor=none;align=center;verticalAlign=middle;whiteSpace=wrap;rounded=0;" vertex="1" parent="1">
          <mxGeometry x="-2150" y="-3320" width="40" height="20" as="geometry" />
        </mxCell>
        <mxCell id="FvRrcLxxwVBO_BsxESHh-74" style="edgeStyle=orthogonalEdgeStyle;rounded=0;orthogonalLoop=1;jettySize=auto;html=1;entryX=0;entryY=0.5;entryDx=0;entryDy=0;" edge="1" parent="1" source="FvRrcLxxwVBO_BsxESHh-60" target="FvRrcLxxwVBO_BsxESHh-46">
          <mxGeometry relative="1" as="geometry" />
        </mxCell>
        <mxCell id="FvRrcLxxwVBO_BsxESHh-60" value="&lt;h1&gt;QR&lt;/h1&gt;" style="ellipse;whiteSpace=wrap;html=1;" vertex="1" parent="1">
          <mxGeometry x="-2650" y="-4200" width="120" height="80" as="geometry" />
        </mxCell>
        <mxCell id="FvRrcLxxwVBO_BsxESHh-61" value="PAGO" style="shape=process;whiteSpace=wrap;html=1;backgroundOutline=1;" vertex="1" parent="1">
          <mxGeometry x="-2340" y="-3190" width="120" height="60" as="geometry" />
        </mxCell>
        <mxCell id="FvRrcLxxwVBO_BsxESHh-95" style="edgeStyle=orthogonalEdgeStyle;rounded=0;orthogonalLoop=1;jettySize=auto;html=1;" edge="1" parent="1" source="FvRrcLxxwVBO_BsxESHh-62">
          <mxGeometry relative="1" as="geometry">
            <mxPoint x="-1490.0000000000005" y="-4050" as="targetPoint" />
          </mxGeometry>
        </mxCell>
        <mxCell id="FvRrcLxxwVBO_BsxESHh-96" style="edgeStyle=orthogonalEdgeStyle;rounded=0;orthogonalLoop=1;jettySize=auto;html=1;exitX=1;exitY=0;exitDx=0;exitDy=0;entryX=0;entryY=0.75;entryDx=0;entryDy=0;" edge="1" parent="1" source="FvRrcLxxwVBO_BsxESHh-62" target="FvRrcLxxwVBO_BsxESHh-63">
          <mxGeometry relative="1" as="geometry" />
        </mxCell>
        <mxCell id="FvRrcLxxwVBO_BsxESHh-97" style="edgeStyle=orthogonalEdgeStyle;rounded=0;orthogonalLoop=1;jettySize=auto;html=1;exitX=1;exitY=1;exitDx=0;exitDy=0;entryX=0;entryY=0.25;entryDx=0;entryDy=0;" edge="1" parent="1" source="FvRrcLxxwVBO_BsxESHh-62" target="FvRrcLxxwVBO_BsxESHh-65">
          <mxGeometry relative="1" as="geometry" />
        </mxCell>
        <mxCell id="FvRrcLxxwVBO_BsxESHh-62" value="DASHBOARD" style="rounded=0;whiteSpace=wrap;html=1;" vertex="1" parent="1">
          <mxGeometry x="-1770" y="-4080" width="120" height="60" as="geometry" />
        </mxCell>
        <mxCell id="FvRrcLxxwVBO_BsxESHh-63" value="MESAS OCUPADAS" style="rounded=0;whiteSpace=wrap;html=1;" vertex="1" parent="1">
          <mxGeometry x="-1520" y="-4200" width="120" height="60" as="geometry" />
        </mxCell>
        <mxCell id="FvRrcLxxwVBO_BsxESHh-64" value="STOCK" style="rounded=0;whiteSpace=wrap;html=1;" vertex="1" parent="1">
          <mxGeometry x="-1480" y="-4070" width="120" height="60" as="geometry" />
        </mxCell>
        <mxCell id="FvRrcLxxwVBO_BsxESHh-65" value="USUARIOS" style="rounded=0;whiteSpace=wrap;html=1;" vertex="1" parent="1">
          <mxGeometry x="-1510" y="-3930" width="120" height="60" as="geometry" />
        </mxCell>
        <mxCell id="FvRrcLxxwVBO_BsxESHh-66" value="A.M.E" style="text;html=1;strokeColor=none;fillColor=none;align=center;verticalAlign=middle;whiteSpace=wrap;rounded=0;" vertex="1" parent="1">
          <mxGeometry x="-1440" y="-4010" width="40" height="20" as="geometry" />
        </mxCell>
        <mxCell id="FvRrcLxxwVBO_BsxESHh-67" value="A.M.I" style="text;html=1;strokeColor=none;fillColor=none;align=center;verticalAlign=middle;whiteSpace=wrap;rounded=0;" vertex="1" parent="1">
          <mxGeometry x="-1470" y="-3870" width="40" height="20" as="geometry" />
        </mxCell>
        <mxCell id="FvRrcLxxwVBO_BsxESHh-98" style="edgeStyle=orthogonalEdgeStyle;rounded=0;orthogonalLoop=1;jettySize=auto;html=1;entryX=0;entryY=0.5;entryDx=0;entryDy=0;" edge="1" parent="1" source="FvRrcLxxwVBO_BsxESHh-68" target="FvRrcLxxwVBO_BsxESHh-69">
          <mxGeometry relative="1" as="geometry" />
        </mxCell>
        <mxCell id="FvRrcLxxwVBO_BsxESHh-68" value="COCINA" style="ellipse;whiteSpace=wrap;html=1;" vertex="1" parent="1">
          <mxGeometry x="-1850" y="-3730" width="150" height="60" as="geometry" />
        </mxCell>
        <mxCell id="FvRrcLxxwVBO_BsxESHh-99" style="edgeStyle=orthogonalEdgeStyle;rounded=0;orthogonalLoop=1;jettySize=auto;html=1;entryX=0;entryY=0.5;entryDx=0;entryDy=0;" edge="1" parent="1" source="FvRrcLxxwVBO_BsxESHh-69" target="FvRrcLxxwVBO_BsxESHh-70">
          <mxGeometry relative="1" as="geometry" />
        </mxCell>
        <mxCell id="FvRrcLxxwVBO_BsxESHh-69" value="VER COMANDA" style="rounded=0;whiteSpace=wrap;html=1;" vertex="1" parent="1">
          <mxGeometry x="-1550" y="-3730" width="120" height="60" as="geometry" />
        </mxCell>
        <mxCell id="FvRrcLxxwVBO_BsxESHh-70" value="MARCAR&lt;br&gt;REALIZADO" style="ellipse;whiteSpace=wrap;html=1;" vertex="1" parent="1">
          <mxGeometry x="-1370" y="-3740" width="120" height="80" as="geometry" />
        </mxCell>
        <mxCell id="FvRrcLxxwVBO_BsxESHh-100" style="edgeStyle=orthogonalEdgeStyle;rounded=0;orthogonalLoop=1;jettySize=auto;html=1;exitX=1;exitY=0;exitDx=0;exitDy=0;entryX=0;entryY=0.5;entryDx=0;entryDy=0;" edge="1" parent="1" source="FvRrcLxxwVBO_BsxESHh-71" target="FvRrcLxxwVBO_BsxESHh-72">
          <mxGeometry relative="1" as="geometry" />
        </mxCell>
        <mxCell id="FvRrcLxxwVBO_BsxESHh-101" style="edgeStyle=orthogonalEdgeStyle;rounded=0;orthogonalLoop=1;jettySize=auto;html=1;exitX=1;exitY=1;exitDx=0;exitDy=0;entryX=0;entryY=0.5;entryDx=0;entryDy=0;" edge="1" parent="1" source="FvRrcLxxwVBO_BsxESHh-71" target="FvRrcLxxwVBO_BsxESHh-73">
          <mxGeometry relative="1" as="geometry" />
        </mxCell>
        <mxCell id="FvRrcLxxwVBO_BsxESHh-71" value="MOZO" style="ellipse;whiteSpace=wrap;html=1;" vertex="1" parent="1">
          <mxGeometry x="-1840" y="-3490" width="150" height="60" as="geometry" />
        </mxCell>
        <mxCell id="FvRrcLxxwVBO_BsxESHh-72" value="PEDIDO ENTREGADO" style="rounded=0;whiteSpace=wrap;html=1;" vertex="1" parent="1">
          <mxGeometry x="-1590" y="-3560" width="120" height="60" as="geometry" />
        </mxCell>
        <mxCell id="FvRrcLxxwVBO_BsxESHh-73" value="MESA DESOCUPADA" style="rounded=0;whiteSpace=wrap;html=1;" vertex="1" parent="1">
          <mxGeometry x="-1590" y="-3430" width="120" height="60" as="geometry" />
        </mxCell>
        <mxCell id="FvRrcLxxwVBO_BsxESHh-78" value="CLICK" style="text;html=1;strokeColor=none;fillColor=none;align=center;verticalAlign=middle;whiteSpace=wrap;rounded=0;" vertex="1" parent="1">
          <mxGeometry x="-2320" y="-3580" width="40" height="20" as="geometry" />
        </mxCell>
      </root>
    </mxGraphModel>
  </diagram>
</mxfile>
